<?xml version="1.0" encoding="UTF-8"?>
<svg id="Layer_2" data-name="Layer 2" xmlns="http://www.w3.org/2000/svg" xmlns:xlink="http://www.w3.org/1999/xlink" viewBox="0 0 3000 3000">
  <defs>
    <radialGradient id="radial-gradient" cx="1903.18" cy="-1475.38" fx="1921.45" fy="-1493.9" r="27.63" gradientTransform="translate(-60057.43 59456.84) scale(32.34 39.26)" gradientUnits="userSpaceOnUse">
      <stop offset=".24" stop-color="#ff95b6"/>
      <stop offset=".25" stop-color="#ff95b6"/>
      <stop offset=".54" stop-color="#ff4d8b"/>
      <stop offset=".94" stop-color="#ff0040"/>
    </radialGradient>
  </defs>
  <ellipse cx="1491.71" cy="1557.15" rx="906.17" ry="847.04" fill="#fc72a5" stroke="#000" stroke-miterlimit="10" stroke-width="8"/>
  <ellipse cx="1491.71" cy="1557.15" rx="780.43" ry="716.34" fill="#fff" stroke-width="0"/>
  <path d="M2177.85,879.79c-87.63,194.04-175.26,388.09-262.89,582.13,99.75,239.36,199.5,478.72,299.25,718.08-256.91-105.01-513.82-210.02-770.73-315.02-224.76,101.41-449.51,202.82-674.27,304.23,117.55-249.64,235.1-499.28,352.66-748.92-111.4-179.37-222.81-358.74-334.21-538.11,216.29,80.7,432.58,161.39,648.87,242.09,247.11-81.49,494.22-162.98,741.33-244.48Z" fill="#f5347f" stroke="#000" stroke-miterlimit="10" stroke-width="6"/>
  <path d="M2712.85,1542.3c-299.68,77.7-599.37,155.41-899.05,233.11-116.71,286.09-233.42,572.18-350.14,858.27-89.83-295.15-179.65-590.3-269.48-885.46-303.75-67.69-607.5-135.37-911.25-203.06,333.31-114.62,666.62-229.24,999.94-343.86,67.71-289.1,135.41-578.21,203.12-867.31,76.54,288.54,153.08,577.08,229.61,865.62,332.42,114.23,664.83,228.46,997.25,342.69Z" fill="#fe036a" stroke="#000" stroke-miterlimit="10" stroke-width="6"/>
  <path id="heart" d="M2216.17,1230.56c-31.94-156.97-202.6-314.41-345.53-305.73-74.02,4.49-128.91,52.83-166.13,85.61,0,0-74.06,65.21-182.21,347.46h0s-.29-280-150.05-397.82c-103.31-81.27-246.16-60.52-262.83-57.87-168.51,26.83-314.72,178.94-342.75,328.35-77.14,411.21,716.86,930.1,718.12,931.32h0c.02-.14,813.69-526.77,731.38-931.32Z" fill="url(#radial-gradient)" stroke="#000" stroke-miterlimit="10" stroke-width="3"/>
</svg>